<svg width="25" height="25" viewBox="0 0 25 25" fill="none" xmlns="http://www.w3.org/2000/svg">
<g id="logos:apple-app-store" clip-path="url(#clip0_805_88)">
<path id="Vector" d="M5.475 0H19.525C22.5488 0 25 2.45117 25 5.475V19.525C25 22.5488 22.5488 25 19.525 25H5.475C2.45117 25 0 22.5488 0 19.525V5.475C0 2.45117 2.45117 0 5.475 0Z" fill="url(#paint0_linear_805_88)"/>
<path id="Vector_2" d="M8.01196 18.1455L8.01431 18.1463L7.15952 19.6268C6.84751 20.1672 6.15649 20.3524 5.61606 20.0404C5.07563 19.7284 4.89048 19.0373 5.20249 18.4969L5.83218 17.4063L5.89263 17.3016C6.00054 17.1465 6.26685 16.8787 6.79956 16.9291C6.79956 16.9291 8.05317 17.0652 8.1439 17.7167C8.1439 17.7167 8.1562 17.9311 8.01196 18.1455ZM20.1353 14.3643H17.4699C17.2883 14.3521 17.2091 14.2872 17.1779 14.2495L17.1759 14.2461L14.3227 9.30414L14.319 9.30658L14.1479 9.06126C13.8674 8.63236 13.4221 9.72923 13.4221 9.72923C12.8904 10.9515 13.4976 12.3411 13.7092 12.7611L17.6723 19.6253C17.9842 20.1657 18.6752 20.3509 19.2158 20.0388C19.7561 19.7268 19.9414 19.0358 19.6292 18.4953L18.6383 16.7789C18.6191 16.7373 18.5857 16.6244 18.7889 16.624H20.1353C20.7593 16.624 21.2652 16.1181 21.2652 15.4941C21.2652 14.8701 20.7593 14.3643 20.1353 14.3643ZM14.9582 15.9001C14.9582 15.9001 15.1004 16.6239 14.5499 16.6239H4.69653C4.07251 16.6239 3.56665 16.118 3.56665 15.494C3.56665 14.87 4.07251 14.3641 4.69653 14.3641H7.22974C7.63872 14.3405 7.7356 14.1043 7.7356 14.1043L7.73794 14.1055L11.0446 8.37816L11.0436 8.37796C11.1039 8.26732 11.0537 8.16273 11.045 8.14623L9.95288 6.25472C9.64087 5.71439 9.82603 5.02328 10.3665 4.71136C10.9069 4.39945 11.5979 4.58441 11.9099 5.12484L12.4164 6.00209L12.9219 5.1264C13.2339 4.58607 13.9249 4.40082 14.4654 4.71293C15.0058 5.02503 15.191 5.71586 14.879 6.25628L10.2776 14.226C10.2575 14.2745 10.2513 14.3507 10.401 14.3641H13.1514L13.152 14.391C13.152 14.391 14.7416 14.4157 14.9582 15.9001Z" fill="white"/>
</g>
<defs>
<linearGradient id="paint0_linear_805_88" x1="1250" y1="0" x2="1250" y2="2500" gradientUnits="userSpaceOnUse">
<stop stop-color="#17C9FB"/>
<stop offset="1" stop-color="#1A74E8"/>
</linearGradient>
<clipPath id="clip0_805_88">
<rect width="25" height="25" fill="white"/>
</clipPath>
</defs>
</svg>
