<svg width="26" height="29" viewBox="0 0 26 29" fill="none" xmlns="http://www.w3.org/2000/svg">
<g id="logos:google-play-icon" clip-path="url(#clip0_805_77)">
<path id="Vector" d="M11.757 14.0421L0.182373 26.1688C0.312355 26.6295 0.545936 27.0543 0.865261 27.4108C1.18459 27.7673 1.5812 28.0461 2.02479 28.2259C2.46837 28.4056 2.94719 28.4816 3.42463 28.4479C3.90207 28.4143 4.36549 28.2719 4.77947 28.0317L17.8031 20.6143L11.757 14.0421Z" fill="#EA4335"/>
<path id="Vector_2" d="M23.4609 11.9808L17.8291 8.755L11.4897 14.318L17.8549 20.597L23.4438 17.4057C23.939 17.1465 24.3537 16.7566 24.643 16.2785C24.9324 15.8003 25.0854 15.2521 25.0854 14.6932C25.0854 14.1343 24.9324 13.5861 24.643 13.108C24.3537 12.6298 23.939 12.24 23.4438 11.9808L23.4609 11.9808Z" fill="#FBBC04"/>
<path id="Vector_3" d="M0.18243 3.15759C0.112509 3.41625 0.0776828 3.68313 0.0788876 3.95106V25.3753C0.0795781 25.6432 0.114372 25.9098 0.18243 26.1689L12.1538 14.3527L0.18243 3.15759Z" fill="#4285F4"/>
<path id="Vector_4" d="M11.8432 14.6632L17.829 8.7551L4.82265 1.30315C4.33329 1.01657 3.77672 0.864798 3.20963 0.863287C1.80233 0.860552 0.56509 1.79459 0.182373 3.14894L11.8432 14.6632Z" fill="#34A853"/>
</g>
<defs>
<clipPath id="clip0_805_77">
<rect width="25.0065" height="27.6439" fill="white" transform="translate(0.0788574 0.863281)"/>
</clipPath>
</defs>
</svg>
